<svg xmlns="http://www.w3.org/2000/svg" width="144.875" height="96.583" viewBox="0 0 144.875 96.583">
  <path id="Path_210" data-name="Path 210" d="M121.964-22.5H5.259A6.036,6.036,0,0,0-.778-16.464v2.012H-10.839a6.036,6.036,0,0,0-6.036,6.036V60A14.085,14.085,0,0,0-2.79,74.083H115.927A12.073,12.073,0,0,0,128,62.01V-16.464A6.036,6.036,0,0,0,121.964-22.5ZM-2.79,62.01A2.013,2.013,0,0,1-4.8,60V-2.378H-.778V60A2.013,2.013,0,0,1-2.79,62.01Zm59.359-4.024H18.338a3.018,3.018,0,0,1-3.018-3.018V52.956a3.018,3.018,0,0,1,3.018-3.018H56.569a3.018,3.018,0,0,1,3.018,3.018v2.012A3.018,3.018,0,0,1,56.569,57.986Zm52.316,0H70.654a3.018,3.018,0,0,1-3.018-3.018V52.956a3.018,3.018,0,0,1,3.018-3.018h38.231a3.018,3.018,0,0,1,3.018,3.018v2.012A3.018,3.018,0,0,1,108.885,57.986ZM56.569,33.84H18.338a3.018,3.018,0,0,1-3.018-3.018V28.81a3.018,3.018,0,0,1,3.018-3.018H56.569a3.018,3.018,0,0,1,3.018,3.018v2.012A3.018,3.018,0,0,1,56.569,33.84Zm52.316,0H70.654a3.018,3.018,0,0,1-3.018-3.018V28.81a3.018,3.018,0,0,1,3.018-3.018h38.231A3.018,3.018,0,0,1,111.9,28.81v2.012A3.018,3.018,0,0,1,108.885,33.84Zm0-24.146H18.338a3.018,3.018,0,0,1-3.018-3.018V-3.385A3.018,3.018,0,0,1,18.338-6.4h90.547A3.018,3.018,0,0,1,111.9-3.385V6.676A3.018,3.018,0,0,1,108.885,9.694Z" transform="translate(16.875 22.5)" fill="#e0e3eb"/>
</svg>
